<svg width="88" height="60" viewBox="0 0 88 60" fill="none" xmlns="http://www.w3.org/2000/svg">
<path d="M43.5201 0C35.9846 0 29.8759 7.13053 29.8759 15.9265C29.8759 22.0268 32.8142 27.3249 37.1288 30L32.1255 32.3183L18.811 38.4923C17.5247 39.1353 16.8828 40.2257 16.8828 41.769V56.4297C16.9886 58.2627 18.0886 59.9711 19.8721 60H67.2402C69.2763 59.823 70.3063 58.1833 70.3264 56.4297V41.769C70.3264 40.2257 69.6844 39.1353 68.3982 38.4923L55.5658 32.3183L50.2328 29.7923C54.3704 27.0569 57.1643 21.8734 57.1643 15.9266C57.1643 7.13053 51.0555 0 43.5201 0ZM21.5121 5.60061C18.2693 5.72375 15.6992 7.12667 13.7467 9.36206C11.5869 12.0534 10.534 15.2489 10.5136 18.4277C10.6463 23.1283 12.7499 27.5782 16.4949 29.9058L1.54314 36.8526C0.514063 37.2384 0 38.1385 0 39.5531V51.3194C0.0803542 52.8798 0.89075 54.1913 2.41026 54.2138H12.3476V41.769C12.5121 38.4418 14.0748 35.7525 16.8828 34.4401L26.8174 29.7148C27.5892 29.2646 28.3291 28.6528 29.0365 27.8812C24.9403 21.5623 24.3715 13.994 27.0114 7.33736C25.2944 6.28677 23.3648 5.61162 21.5121 5.60061ZM65.8882 5.60061C63.7675 5.64501 61.8077 6.42579 60.1978 7.52843C62.7657 14.2454 62.0574 21.8184 58.2668 27.6873C59.103 28.6517 59.9734 29.3915 60.8738 29.906L70.4234 34.4401C73.3325 36.0353 74.8326 38.7484 74.8615 41.7691V54.2139H85.087C86.7686 54.0688 87.4854 52.7277 87.5 51.3194V39.5532C87.5 38.2671 86.9859 37.3671 85.9569 36.8526L71.1963 29.8089C75.0242 26.987 76.9464 22.7579 76.9836 18.4277C76.8818 15.0004 75.8346 11.8181 73.7505 9.36206C71.5728 7.00011 68.8717 5.62562 65.8882 5.60061Z" fill="url(#paint0_linear_327_42)"/>
<defs>
<linearGradient id="paint0_linear_327_42" x1="43.75" y1="0" x2="43.75" y2="78.1818" gradientUnits="userSpaceOnUse">
<stop stop-color="#4D2C85"/>
<stop offset="1" stop-color="#03B1E0"/>
</linearGradient>
</defs>
</svg>
