<svg width="43" height="43" viewBox="0 0 43 43" fill="none" xmlns="http://www.w3.org/2000/svg">
<path fill-rule="evenodd" clip-rule="evenodd" d="M10 0C4.47715 0 0 4.47715 0 10V33C0 38.5228 4.47715 43 10 43H33C38.5228 43 43 38.5228 43 33V10C43 4.47715 38.5228 0 33 0H10ZM10 28.4999C9.17157 28.4999 8.5 29.1715 8.5 29.9999C8.5 30.8284 9.17157 31.4999 10 31.4999H21.5H34C34.8284 31.4999 35.5 30.8284 35.5 29.9999C35.5 29.1715 34.8284 28.4999 34 28.4999H21.5H10ZM14 17.4999C14 19.4329 12.6569 20.9999 11 20.9999C9.34315 20.9999 8 19.4329 8 17.4999C8 15.5669 9.34315 13.9999 11 13.9999C12.6569 13.9999 14 15.5669 14 17.4999ZM33 20.9999C34.6569 20.9999 36 19.4329 36 17.4999C36 15.5669 34.6569 13.9999 33 13.9999C31.3431 13.9999 30 15.5669 30 17.4999C30 19.4329 31.3431 20.9999 33 20.9999ZM16.4772 11.0375C16.2467 11.8332 15.4148 12.2913 14.6191 12.0608L11.8426 11.2564L8.68043 10.5669C7.87102 10.3904 7.35794 9.59116 7.53444 8.78175C7.71093 7.97235 8.51016 7.45927 9.31957 7.63576L12.531 8.33603C12.5639 8.3432 12.5965 8.35147 12.6289 8.36084L15.4539 9.1793C16.2496 9.40983 16.7078 10.2418 16.4772 11.0375ZM29.3565 8.13503C28.6457 8.56054 28.4145 9.4817 28.84 10.1925C29.2655 10.9033 30.1866 11.1346 30.8974 10.7091L31.1275 10.5714C32.8433 9.5442 34.9591 9.44305 36.7651 10.3018C37.5133 10.6576 38.4082 10.3395 38.7639 9.59136C39.1197 8.84321 38.8016 7.94832 38.0534 7.59256C35.3411 6.30279 32.1635 6.4547 29.5866 7.99733L29.3565 8.13503Z" fill="url(#paint0_linear_183_337)"/>
<defs>
<linearGradient id="paint0_linear_183_337" x1="21.5" y1="0" x2="21.5" y2="50.5" gradientUnits="userSpaceOnUse">
<stop stop-color="#4D2C85"/>
<stop offset="1" stop-color="#03B1E0"/>
</linearGradient>
</defs>
</svg>
