<svg width="43" height="43" viewBox="0 0 43 43" fill="none" xmlns="http://www.w3.org/2000/svg">
<path fill-rule="evenodd" clip-rule="evenodd" d="M10 0C4.47715 0 0 4.47715 0 10V33C0 38.5228 4.47715 43 10 43H33C38.5228 43 43 38.5228 43 33V10C43 4.47715 38.5228 0 33 0H10ZM35.7481 26.8321C36.2076 26.1428 36.0213 25.2115 35.3321 24.752C34.6428 24.2925 33.7115 24.4787 33.2519 25.168C30.9686 28.593 27.2714 30.8155 23.1754 31.2251L22.0624 31.3364C21.0209 31.4405 19.9717 31.443 18.9298 31.3437L10.1422 30.5068C9.31752 30.4283 8.5853 31.0332 8.50676 31.8579C8.42822 32.6826 9.03309 33.4148 9.85779 33.4933L18.6453 34.3302C19.8812 34.4479 21.1256 34.445 22.3609 34.3215L23.4739 34.2102C28.4632 33.7112 32.9667 31.0041 35.7481 26.8321ZM27.5154 10.9533C27.3051 10.152 27.7842 9.33191 28.5855 9.12161L28.8448 9.05356C31.7498 8.29116 34.8436 9.03184 37.0884 11.0271C37.7076 11.5775 37.7634 12.5256 37.213 13.1448C36.6626 13.764 35.7145 13.8198 35.0954 13.2694C33.6007 11.9408 31.5407 11.4476 29.6064 11.9553L29.3471 12.0233C28.5458 12.2336 27.7257 11.7545 27.5154 10.9533ZM3.43143 11.0007C2.79621 11.5324 2.71234 12.4785 3.24412 13.1137C3.77589 13.7489 4.72193 13.8328 5.35715 13.301L5.56272 13.1289C7.09613 11.8452 9.16986 11.4133 11.0882 11.9781C11.883 12.212 12.7168 11.7575 12.9508 10.9628C13.1848 10.1681 12.7302 9.33416 11.9355 9.1002C9.05435 8.25202 5.93994 8.90067 3.637 10.8286L3.43143 11.0007ZM9.03616 17.9262C8.94404 17.9442 8.851 17.9614 8.7571 17.9777C6.3086 18.4037 4.20859 18.0874 4.0666 17.2712C3.9246 16.455 5.7944 15.4481 8.24291 15.0221C9.97843 14.7202 11.5389 14.7912 12.351 15.1488C13.3128 15.4969 14 16.4183 14 17.5002C14 18.8809 12.8807 20.0002 11.5 20.0002C10.2645 20.0002 9.23835 19.104 9.03616 17.9262ZM30.6981 17.9777C30.792 17.9614 30.885 17.9442 30.9771 17.9262C31.1793 19.104 32.2055 20.0002 33.441 20.0002C34.8217 20.0002 35.941 18.8809 35.941 17.5002C35.941 16.4183 35.2538 15.4969 34.292 15.1488C33.4799 14.7912 31.9194 14.7202 30.1839 15.0221C27.7354 15.4481 25.8656 16.455 26.0076 17.2712C26.1496 18.0874 28.2496 18.4037 30.6981 17.9777Z" fill="url(#paint0_linear_183_335)"/>
<defs>
<linearGradient id="paint0_linear_183_335" x1="21.5" y1="0" x2="21.5" y2="50" gradientUnits="userSpaceOnUse">
<stop stop-color="#4D2C85"/>
<stop offset="1" stop-color="#03B1E0"/>
</linearGradient>
</defs>
</svg>
