<svg width="61" height="60" viewBox="0 0 61 60" fill="none" xmlns="http://www.w3.org/2000/svg">
<path d="M3.3543 33.3333H23.4801C25.3249 33.3333 26.8344 31.8333 26.8344 30V3.33333C26.8344 1.5 25.3249 0 23.4801 0H3.3543C1.50943 0 0 1.5 0 3.33333V30C0 31.8333 1.50943 33.3333 3.3543 33.3333ZM3.3543 60H23.4801C25.3249 60 26.8344 58.5 26.8344 56.6667V43.3333C26.8344 41.5 25.3249 40 23.4801 40H3.3543C1.50943 40 0 41.5 0 43.3333V56.6667C0 58.5 1.50943 60 3.3543 60ZM36.8973 60H57.0231C58.8679 60 60.3774 58.5 60.3774 56.6667V30C60.3774 28.1667 58.8679 26.6667 57.0231 26.6667H36.8973C35.0524 26.6667 33.543 28.1667 33.543 30V56.6667C33.543 58.5 35.0524 60 36.8973 60ZM33.543 3.33333V16.6667C33.543 18.5 35.0524 20 36.8973 20H57.0231C58.8679 20 60.3774 18.5 60.3774 16.6667V3.33333C60.3774 1.5 58.8679 0 57.0231 0H36.8973C35.0524 0 33.543 1.5 33.543 3.33333Z" fill="url(#paint0_linear_326_75)"/>
<defs>
<linearGradient id="paint0_linear_326_75" x1="30.1887" y1="0" x2="30.1887" y2="75.6604" gradientUnits="userSpaceOnUse">
<stop stop-color="#4D2C85"/>
<stop offset="1" stop-color="#03B1E0"/>
</linearGradient>
</defs>
</svg>
