<svg width="43" height="43" viewBox="0 0 43 43" fill="none" xmlns="http://www.w3.org/2000/svg">
<path fill-rule="evenodd" clip-rule="evenodd" d="M10 0C4.47715 0 0 4.47715 0 10V33C0 38.5228 4.47715 43 10 43H33C38.5228 43 43 38.5228 43 33V10C43 4.47715 38.5228 0 33 0H10ZM9.32087 29.2445C8.62751 28.7911 7.6979 28.9857 7.24455 29.6791C6.79119 30.3724 6.98576 31.302 7.67913 31.7554L12.8165 35.1145C18.1387 38.5944 24.885 39.0648 30.6387 36.3572C31.3883 36.0044 31.71 35.1108 31.3572 34.3612C31.0045 33.6117 30.1109 33.29 29.3613 33.6427C24.55 35.9068 18.9087 35.5135 14.4583 32.6035L9.32087 29.2445ZM14 17.4999C14 19.4329 12.6569 20.9999 11 20.9999C9.34315 20.9999 8 19.4329 8 17.4999C8 15.5669 9.34315 13.9999 11 13.9999C12.6569 13.9999 14 15.5669 14 17.4999ZM33 20.9999C34.6569 20.9999 36 19.4329 36 17.4999C36 15.5669 34.6569 13.9999 33 13.9999C31.3431 13.9999 30 15.5669 30 17.4999C30 19.4329 31.3431 20.9999 33 20.9999ZM16.4772 11.0375C16.2467 11.8332 15.4148 12.2913 14.6191 12.0608L11.8426 11.2564L8.68043 10.5669C7.87102 10.3904 7.35794 9.59117 7.53444 8.78176C7.71093 7.97235 8.51016 7.45927 9.31957 7.63577L12.531 8.33603C12.5639 8.3432 12.5965 8.35148 12.6289 8.36084L15.4539 9.17931C16.2496 9.40984 16.7078 10.2418 16.4772 11.0375ZM31.9816 6.24684C31.1533 6.25698 30.49 6.93673 30.5001 7.7651C30.5103 8.59346 31.19 9.25676 32.0184 9.24661L32.2865 9.24333C34.2861 9.21883 36.1655 10.1958 37.2943 11.8466C37.7619 12.5305 38.6954 12.7057 39.3792 12.2381C40.063 11.7705 40.2383 10.8371 39.7707 10.1533C38.0755 7.67408 35.2529 6.20676 32.2497 6.24355L31.9816 6.24684Z" fill="url(#paint0_linear_183_336)"/>
<defs>
<linearGradient id="paint0_linear_183_336" x1="21.5" y1="0" x2="21.5" y2="47.5" gradientUnits="userSpaceOnUse">
<stop stop-color="#4D2C85"/>
<stop offset="1" stop-color="#03B1E0"/>
</linearGradient>
</defs>
</svg>
