<svg width="43" height="43" viewBox="0 0 43 43" fill="none" xmlns="http://www.w3.org/2000/svg">
<path fill-rule="evenodd" clip-rule="evenodd" d="M0 10C0 4.47715 4.47715 0 10 0H33C38.5228 0 43 4.47715 43 10V33C43 38.5228 38.5228 43 33 43H10C4.47715 43 0 38.5228 0 33V10ZM35.3927 29.4429C35.7004 30.2121 35.3263 31.085 34.5571 31.3927L33.7001 31.7355C25.8775 34.8645 17.1284 34.735 9.40191 31.3756C8.64219 31.0453 8.29408 30.1616 8.6244 29.4019C8.95471 28.6422 9.83836 28.2941 10.5981 28.6244C17.5899 31.6643 25.5072 31.7816 32.586 28.9501L33.4429 28.6073C34.2121 28.2996 35.085 28.6737 35.3927 29.4429ZM11 18.9999C12.6569 18.9999 14 17.4329 14 15.4999C14 13.5669 12.6569 11.9999 11 11.9999C9.34315 11.9999 8 13.5669 8 15.4999C8 17.4329 9.34315 18.9999 11 18.9999ZM36 15.4999C36 17.4329 34.6569 18.9999 33 18.9999C31.3431 18.9999 30 17.4329 30 15.4999C30 13.5669 31.3431 11.9999 33 11.9999C34.6569 11.9999 36 13.5669 36 15.4999ZM21.3598 40.4665C21.7307 40.7755 22.2693 40.7755 22.6402 40.4665L25.8781 37.7682C26.5966 37.1694 26.1732 35.9999 25.2379 35.9999H18.762C17.8268 35.9999 17.4033 37.1694 18.1219 37.7682L21.3598 40.4665ZM15.4772 10.0375C15.2467 10.8332 14.4148 11.2913 13.6191 11.0608L10.8426 10.2564L7.68043 9.56689C6.87102 9.39039 6.35794 8.59116 6.53444 7.78175C6.71093 6.97235 7.51016 6.45927 8.31957 6.63576L11.531 7.33603C11.5639 7.3432 11.5965 7.35147 11.6289 7.36084L14.4539 8.1793C15.2496 8.40983 15.7078 9.24176 15.4772 10.0375ZM28.3565 7.13503C27.6457 7.56054 27.4145 8.4817 27.84 9.1925C28.2655 9.9033 29.1866 10.1346 29.8974 9.70907L30.1275 9.57136C31.8433 8.5442 33.9591 8.44305 35.7651 9.30185C36.5133 9.65761 37.4082 9.33951 37.7639 8.59136C38.1197 7.84321 37.8016 6.94832 37.0534 6.59256C34.3411 5.30279 31.1635 5.4547 28.5866 6.99733L28.3565 7.13503Z" fill="url(#paint0_linear_183_338)"/>
<defs>
<linearGradient id="paint0_linear_183_338" x1="21.5" y1="0" x2="21.5" y2="52" gradientUnits="userSpaceOnUse">
<stop stop-color="#4D2C85"/>
<stop offset="1" stop-color="#03B1E0"/>
</linearGradient>
</defs>
</svg>
