<svg width="67" height="58" viewBox="0 0 67 58" fill="none" xmlns="http://www.w3.org/2000/svg">
    <path fill-rule="evenodd" clip-rule="evenodd"
        d="M12 25C12 19.4772 16.4772 15 22 15H45C50.5228 15 55 19.4772 55 25V48C55 53.5228 50.5228 58 45 58H22C16.4772 58 12 53.5228 12 48V25ZM47.3927 44.4429C47.7004 45.2121 47.3263 46.085 46.5571 46.3927L45.7001 46.7355C37.8775 49.8645 29.1284 49.735 21.4019 46.3756C20.6422 46.0453 20.2941 45.1616 20.6244 44.4019C20.9547 43.6422 21.8384 43.2941 22.5981 43.6244C29.5899 46.6643 37.5072 46.7816 44.586 43.9501L45.4429 43.6073C46.2121 43.2996 47.085 43.6737 47.3927 44.4429ZM23 33.9999C24.6569 33.9999 26 32.4329 26 30.4999C26 28.5669 24.6569 26.9999 23 26.9999C21.3431 26.9999 20 28.5669 20 30.4999C20 32.4329 21.3431 33.9999 23 33.9999ZM48 30.4999C48 32.4329 46.6569 33.9999 45 33.9999C43.3431 33.9999 42 32.4329 42 30.4999C42 28.5669 43.3431 26.9999 45 26.9999C46.6569 26.9999 48 28.5669 48 30.4999ZM33.3598 55.4665C33.7307 55.7755 34.2693 55.7755 34.6402 55.4665L37.8781 52.7682C38.5966 52.1694 38.1732 50.9999 37.2379 50.9999H30.762C29.8268 50.9999 29.4033 52.1694 30.1219 52.7682L33.3598 55.4665ZM27.4772 25.0375C27.2467 25.8332 26.4148 26.2913 25.6191 26.0608L22.8426 25.2564L19.6804 24.5669C18.871 24.3904 18.3579 23.5912 18.5344 22.7818C18.7109 21.9723 19.5102 21.4593 20.3196 21.6358L23.531 22.336C23.5639 22.3432 23.5965 22.3515 23.6289 22.3608L26.4539 23.1793C27.2496 23.4098 27.7078 24.2418 27.4772 25.0375ZM40.3565 22.135C39.6457 22.5605 39.4145 23.4817 39.84 24.1925C40.2655 24.9033 41.1866 25.1346 41.8974 24.7091L42.1275 24.5714C43.8433 23.5442 45.9591 23.4431 47.7651 24.3018C48.5133 24.6576 49.4082 24.3395 49.7639 23.5914C50.1197 22.8432 49.8016 21.9483 49.0534 21.5926C46.3411 20.3028 43.1635 20.4547 40.5866 21.9973L40.3565 22.135Z"
        fill="url(#paint0_linear_183_338)" />
    <g filter="url(#filter0_d_183_338)">
        <path fill-rule="evenodd" clip-rule="evenodd"
            d="M46.6809 2C46.6809 0.895431 45.7854 0 44.6809 0H23.5745C22.4699 0 21.5745 0.895431 21.5745 2V9C21.5745 10.1046 20.679 11 19.5745 11H6C4.89543 11 4 11.8954 4 13V18C4 19.1046 4.89543 20 6 20H61C62.1046 20 63 19.1046 63 18V13C63 11.8954 62.1046 11 61 11H48.6809C47.5763 11 46.6809 10.1046 46.6809 9V2Z"
            fill="black" />
    </g>
    <defs>
        <filter id="filter0_d_183_338" x="0" y="0" width="67" height="28"
            filterUnits="userSpaceOnUse" color-interpolation-filters="sRGB">
            <feFlood flood-opacity="0" result="BackgroundImageFix" />
            <feColorMatrix in="SourceAlpha" type="matrix"
                values="0 0 0 0 0 0 0 0 0 0 0 0 0 0 0 0 0 0 127 0" result="hardAlpha" />
            <feOffset dy="4" />
            <feGaussianBlur stdDeviation="2" />
            <feComposite in2="hardAlpha" operator="out" />
            <feColorMatrix type="matrix" values="0 0 0 0 0 0 0 0 0 0 0 0 0 0 0 0 0 0 0.25 0" />
            <feBlend mode="normal" in2="BackgroundImageFix" result="effect1_dropShadow_183_338" />
            <feBlend mode="normal" in="SourceGraphic" in2="effect1_dropShadow_183_338"
                result="shape" />
        </filter>
        <linearGradient id="paint0_linear_183_338" x1="33.5" y1="15" x2="33.5" y2="67"
            gradientUnits="userSpaceOnUse">
            <stop stop-color="#4D2C85" />
            <stop offset="1" stop-color="#03B1E0" />
        </linearGradient>
    </defs>
</svg>