<svg width="78" height="60" viewBox="0 0 78 60" fill="none" xmlns="http://www.w3.org/2000/svg">
<path d="M65.5066 4.98621C60.6032 2.66181 55.2943 0.974748 49.7642 0C49.6669 0.00140853 49.5742 0.0418346 49.5061 0.112472C48.8425 1.34965 48.0683 2.96173 47.5521 4.19891C41.6865 3.29971 35.7214 3.29971 29.8558 4.19891C29.3397 2.92424 28.5654 1.34965 27.865 0.112472C27.8281 0.0374911 27.7175 0 27.6069 0C22.0768 0.974748 16.8048 2.66181 11.8645 4.98621C11.8277 4.98621 11.7908 5.0237 11.7539 5.06119C1.726 20.3197 -1.03905 35.1659 0.325038 49.8621C0.325038 49.9371 0.361905 50.0121 0.43564 50.0495C7.07177 54.9983 13.4498 57.9975 19.7541 59.9845C19.8647 60.022 19.9753 59.9845 20.0122 59.9095C21.4869 57.8475 22.8141 55.6731 23.957 53.3862C24.0308 53.2362 23.957 53.0863 23.8096 53.0488C21.7081 52.224 19.7173 51.2492 17.7633 50.1245C17.6158 50.0495 17.6158 49.8246 17.7264 49.7121C18.132 49.4122 18.5375 49.0748 18.9431 48.7749C19.0168 48.6999 19.1274 48.6999 19.2011 48.7374C31.8835 54.6234 45.5613 54.6234 58.0962 48.7374C58.1699 48.6999 58.2805 48.6999 58.3543 48.7749C58.7598 49.1123 59.1654 49.4122 59.5709 49.7496C59.7184 49.8621 59.7184 50.087 59.534 50.162C57.6169 51.3242 55.5892 52.2615 53.4878 53.0863C53.3403 53.1237 53.3035 53.3112 53.3403 53.4237C54.5201 55.7106 55.8473 57.885 57.2851 59.947C57.3957 59.9845 57.5063 60.022 57.6169 59.9845C63.9581 57.9975 70.3362 54.9983 76.9723 50.0495C77.046 50.0121 77.0829 49.9371 77.0829 49.8621C78.7051 32.879 74.3916 18.1453 65.654 5.06119C65.6172 5.0237 65.5803 4.98621 65.5066 4.98621ZM25.8741 40.9019C22.0768 40.9019 18.9062 37.3403 18.9062 32.954C18.9062 28.5676 22.0031 25.006 25.8741 25.006C29.7821 25.006 32.8789 28.6051 32.8421 32.954C32.8421 37.3403 29.7452 40.9019 25.8741 40.9019ZM51.5707 40.9019C47.7733 40.9019 44.6028 37.3403 44.6028 32.954C44.6028 28.5676 47.6996 25.006 51.5707 25.006C55.4786 25.006 58.5755 28.6051 58.5386 32.954C58.5386 37.3403 55.4786 40.9019 51.5707 40.9019Z" fill="url(#paint0_linear_326_77)"/>
<defs>
<linearGradient id="paint0_linear_326_77" x1="38.7097" y1="0" x2="38.7097" y2="73.0645" gradientUnits="userSpaceOnUse">
<stop stop-color="#4D2C85"/>
<stop offset="1" stop-color="#03B1E0"/>
</linearGradient>
</defs>
</svg>
