<svg width="60" height="60" viewBox="0 0 60 60" fill="none" xmlns="http://www.w3.org/2000/svg">
<path d="M0.000654676 39.0255C-0.0035597 39.1267 0.0126074 39.2278 0.0481611 39.3224C0.0837148 39.4171 0.137904 39.5033 0.207396 39.5759C0.276889 39.6484 0.360216 39.7057 0.452253 39.7442C0.544291 39.7827 0.643093 39.8017 0.742585 39.7999H3.28239C3.70723 39.7999 4.04587 39.4456 4.10129 39.0161C4.37836 36.9594 5.76371 35.4608 8.23271 35.4608C10.3446 35.4608 12.2779 36.5361 12.2779 39.1227C12.2779 41.1135 11.1265 42.029 9.30712 43.421C7.23525 44.9542 5.59439 46.7444 5.71137 49.6507L5.72061 50.331C5.72384 50.5367 5.80635 50.7329 5.95034 50.8772C6.09432 51.0215 6.28824 51.1023 6.49025 51.1023H8.98695C9.19107 51.1023 9.38683 51.0197 9.53117 50.8727C9.6755 50.7257 9.75659 50.5264 9.75659 50.3185V49.9893C9.75659 47.7382 10.597 47.083 12.8659 45.3304C14.7408 43.8788 16.6957 42.2673 16.6957 38.8844C16.6957 34.1471 12.7674 31.8584 8.46668 31.8584C4.56615 31.8584 0.293117 33.7082 0.000654676 39.0255ZM4.79396 57.0937C4.79396 58.7647 6.10235 60 7.9033 60C9.77814 60 11.0681 58.7647 11.0681 57.0937C11.0681 55.363 9.77506 54.1466 7.90022 54.1466C6.10235 54.1466 4.79396 55.363 4.79396 57.0937Z" fill="url(#paint0_linear_326_67)"/>
<path d="M34.1739 0C41.0234 0 47.5924 2.71317 52.4357 7.54265C57.279 12.3721 60 18.9223 60 25.7522C60 32.5821 57.279 39.1323 52.4357 43.9618C47.5924 48.7912 41.0234 51.5044 34.1739 51.5044C27.3244 51.5044 20.7554 48.7912 15.9121 43.9618C11.0688 39.1323 8.34783 32.5821 8.34783 25.7522C8.34783 18.9223 11.0688 12.3721 15.9121 7.54265C20.7554 2.71317 27.3244 0 34.1739 0ZM35.5427 11.0072C32.5395 11.0072 30.1856 11.8571 28.4405 13.5567C26.6548 15.2563 25.8026 17.6035 25.8026 20.5981H30.4291C30.4291 18.8984 30.7538 17.563 31.4437 16.6322C32.2148 15.4992 33.4729 14.9731 35.2586 14.9731C36.6385 14.9731 37.7342 15.3373 38.5053 16.1062C39.2358 16.8751 39.6417 17.9272 39.6417 19.2627C39.6417 20.2743 39.2764 21.2456 38.5459 22.1359L38.0589 22.7024C35.4209 25.0495 33.8382 26.7492 33.3106 27.8418C32.7424 28.9344 32.4989 30.2699 32.4989 31.8077V32.3742H37.1661V31.8077C37.1661 30.8364 37.369 29.9866 37.7748 29.1773C38.1401 28.4488 38.6677 27.7609 39.3982 27.1539C41.3462 25.4542 42.5231 24.3616 42.8884 23.9569C43.8624 22.6619 44.39 21.0028 44.39 18.9794C44.39 16.5108 43.5783 14.5684 41.9549 13.152C40.3316 11.6952 38.1806 11.0072 35.5427 11.0072ZM34.8122 34.3571C33.9847 34.3348 33.1821 34.6404 32.5801 35.207C32.2828 35.4861 32.0493 35.8257 31.8952 36.2027C31.7412 36.5798 31.6703 36.9854 31.6872 37.3922C31.6872 38.2825 31.9713 39.0109 32.5801 39.5775C33.1775 40.1557 33.9796 40.4756 34.8122 40.4678C35.705 40.4678 36.4355 40.1845 37.0443 39.6179C37.3478 39.333 37.5878 38.9876 37.7486 38.6041C37.9094 38.2207 37.9875 37.8077 37.9777 37.3922C37.9855 36.9866 37.9104 36.5837 37.7569 36.208C37.6033 35.8322 37.3747 35.4917 37.0849 35.207C36.4672 34.6394 35.6518 34.3345 34.8122 34.3571Z" fill="url(#paint1_linear_326_67)"/>
<defs>
<linearGradient id="paint0_linear_326_67" x1="30" y1="0" x2="30.2702" y2="74.6017" gradientUnits="userSpaceOnUse">
<stop stop-color="#4D2C85"/>
<stop offset="1" stop-color="#03B1E0"/>
</linearGradient>
<linearGradient id="paint1_linear_326_67" x1="30" y1="0" x2="30.2702" y2="74.6017" gradientUnits="userSpaceOnUse">
<stop stop-color="#4D2C85"/>
<stop offset="1" stop-color="#03B1E0"/>
</linearGradient>
</defs>
</svg>
