<svg width="43" height="43" viewBox="0 0 43 43" fill="none" xmlns="http://www.w3.org/2000/svg">
<path fill-rule="evenodd" clip-rule="evenodd" d="M0 10C0 4.47715 4.47715 0 10 0H33C38.5228 0 43 4.47715 43 10V33C43 38.5228 38.5228 43 33 43H10C4.47715 43 0 38.5228 0 33V10ZM14 15.5C14 16.8807 13.1046 18 12 18C10.8954 18 10 16.8807 10 15.5C10 14.1193 10.8954 13 12 13C13.1046 13 14 14.1193 14 15.5ZM32 18C33.1046 18 34 16.8807 34 15.5C34 14.1193 33.1046 13 32 13C30.8954 13 30 14.1193 30 15.5C30 16.8807 30.8954 18 32 18ZM15 10H10C8.34315 10 7 11.3431 7 13V18C7 19.6569 8.34315 21 10 21H15C16.6569 21 18 19.6569 18 18V13C18 11.3431 16.6569 10 15 10ZM10 8C7.23858 8 5 10.2386 5 13V18C5 20.7614 7.23858 23 10 23H15C17.7614 23 20 20.7614 20 18V17H24V18C24 20.7614 26.2386 23 29 23H34C36.7614 23 39 20.7614 39 18V13C39 10.2386 36.7614 8 34 8H29C26.2386 8 24 10.2386 24 13V15H20V13C20 10.2386 17.7614 8 15 8H10ZM29 10H34C35.6569 10 37 11.3431 37 13V18C37 19.6569 35.6569 21 34 21H29C27.3431 21 26 19.6569 26 18V13C26 11.3431 27.3431 10 29 10ZM14.2425 30.0299C13.7067 29.8959 13.1638 30.2217 13.0299 30.7575C12.8959 31.2933 13.2217 31.8362 13.7575 31.9701C15.1679 32.3228 16.5954 32.5835 18.0309 32.7523C18.0107 32.8315 18 32.9145 18 33V35C18 35.5523 18.4477 36 19 36H21C21.5523 36 22 35.5523 22 35C22 35.5523 22.4477 36 23 36H25C25.5523 36 26 35.5523 26 35V33C26 32.9145 25.9893 32.8315 25.9691 32.7523C27.4046 32.5835 28.8321 32.3228 30.2425 31.9701C30.7783 31.8362 31.1041 31.2933 30.9701 30.7575C30.8362 30.2217 30.2933 29.8959 29.7575 30.0299C24.6642 31.3032 19.3358 31.3032 14.2425 30.0299ZM22.5004 32.9812C23.4889 32.9666 24.477 32.9089 25.4618 32.8081C25.4864 32.8672 25.5 32.932 25.5 33V35C25.5 35.2761 25.2761 35.5 25 35.5H23C22.7239 35.5 22.5 35.2761 22.5 35V33C22.5 32.9937 22.5001 32.9874 22.5004 32.9812ZM22.0001 32.9848C22 32.9848 22 32.9848 21.9999 32.9848L22 33C22 32.9949 22 32.9899 22.0001 32.9848ZM18.5 33C18.5 32.932 18.5136 32.8672 18.5382 32.8081C19.523 32.9089 20.5111 32.9666 21.4996 32.9812C21.4999 32.9874 21.5 32.9937 21.5 33V35C21.5 35.2761 21.2761 35.5 21 35.5H19C18.7239 35.5 18.5 35.2761 18.5 35V33Z" fill="url(#paint0_linear_183_334)"/>
<defs>
<linearGradient id="paint0_linear_183_334" x1="21.5" y1="-4.5" x2="21.5" y2="50.5" gradientUnits="userSpaceOnUse">
<stop stop-color="#4D2C85"/>
<stop offset="1" stop-color="#03B1E0"/>
</linearGradient>
</defs>
</svg>
