<svg width="817" height="85" viewBox="0 0 817 85" fill="none" xmlns="http://www.w3.org/2000/svg">
<g clip-path="url(#clip0_127_5)">
<mask id="path-1-outside-1_127_5" maskUnits="userSpaceOnUse" x="0" y="23" width="817" height="96" fill="black">
<rect fill="white" y="23" width="817" height="96"/>
<path d="M49.168 26.4H71.952V116H49.168V81.568H23.952V116H1.04V26.4H23.952V59.552H49.168V26.4ZM130.453 52H151.701V116H130.453V110.112C126.101 115.232 120.042 117.792 112.277 117.792C103.744 117.792 96.5757 114.592 90.773 108.192C85.0557 101.707 82.197 93.6427 82.197 84C82.197 74.3573 85.0557 66.336 90.773 59.936C96.5757 53.4507 103.744 50.208 112.277 50.208C120.042 50.208 126.101 52.768 130.453 57.888V52ZM107.285 94.112C109.76 96.672 113.002 97.952 117.013 97.952C121.024 97.952 124.266 96.672 126.741 94.112C129.216 91.552 130.453 88.1813 130.453 84C130.453 79.8187 129.216 76.448 126.741 73.888C124.266 71.328 121.024 70.048 117.013 70.048C113.002 70.048 109.76 71.328 107.285 73.888C104.81 76.448 103.573 79.8187 103.573 84C103.573 88.1813 104.81 91.552 107.285 94.112ZM194.87 117.792C185.142 117.792 177.035 114.549 170.55 108.064C164.065 101.579 160.822 93.5573 160.822 84C160.822 74.4427 164.065 66.4213 170.55 59.936C177.035 53.4507 185.142 50.208 194.87 50.208C201.185 50.208 206.902 51.7013 212.022 54.688C217.227 57.6747 221.238 61.6853 224.054 66.72L205.878 77.216C203.574 73.0347 199.862 70.944 194.742 70.944C191.158 70.944 188.171 72.1813 185.782 74.656C183.393 77.0453 182.198 80.16 182.198 84C182.198 87.84 183.393 90.9973 185.782 93.472C188.171 95.8613 191.158 97.056 194.742 97.056C200.033 97.056 203.745 94.9227 205.878 90.656L224.054 101.152C221.238 106.272 217.227 110.325 212.022 113.312C206.902 116.299 201.185 117.792 194.87 117.792ZM294.126 116H270.318L252.142 88.736V116H230.894V26.4H252.142V78.752L268.654 52H293.23L271.726 84L294.126 116ZM361.197 109.344C354.626 115.061 346.136 117.92 335.725 117.92C325.314 117.92 316.781 115.061 310.125 109.344C303.554 103.627 300.269 96.032 300.269 86.56V26.4H323.181V84.384C323.181 91.8933 327.362 95.648 335.725 95.648C344.088 95.648 348.269 91.8933 348.269 84.384V26.4H371.181V86.56C371.181 96.032 367.853 103.627 361.197 109.344ZM445.855 26.4V48.544H423.711V116H400.799V48.544H378.655V26.4H445.855ZM502.446 116L498.606 103.072H468.782L464.942 116H440.11L469.678 26.4H497.582L527.15 116H502.446ZM474.67 83.36H492.718L483.63 52.896L474.67 83.36ZM529.938 116V99.36L559.634 68C562.621 64.7573 564.797 62.1547 566.162 60.192C567.527 58.144 568.21 56.1387 568.21 54.176C568.21 51.9573 567.485 50.1653 566.034 48.8C564.669 47.4347 562.749 46.752 560.274 46.752C554.983 46.752 550.973 49.8667 548.242 56.096L528.53 45.088C531.431 38.3467 535.698 33.2267 541.33 29.728C546.962 26.2293 553.191 24.48 560.018 24.48C568.551 24.48 575.847 27.04 581.906 32.16C588.05 37.1947 591.122 44.1067 591.122 52.896C591.122 58.1013 589.885 62.9227 587.41 67.36C585.021 71.712 581.479 76.32 576.786 81.184L564.626 93.856H592.658V116H529.938ZM662.834 105.248C656.349 113.696 647.261 117.92 635.57 117.92C623.879 117.92 614.749 113.696 608.178 105.248C601.693 96.7147 598.45 85.3653 598.45 71.2C598.45 57.0347 601.693 45.728 608.178 37.28C614.749 28.7467 623.879 24.48 635.57 24.48C647.261 24.48 656.349 28.7467 662.834 37.28C669.405 45.728 672.69 57.0347 672.69 71.2C672.69 85.3653 669.405 96.7147 662.834 105.248ZM621.362 71.2C621.362 87.4987 626.098 95.648 635.57 95.648C645.042 95.648 649.778 87.4987 649.778 71.2C649.778 54.9013 645.042 46.752 635.57 46.752C626.098 46.752 621.362 54.9013 621.362 71.2ZM676.688 116V99.36L706.384 68C709.371 64.7573 711.547 62.1547 712.912 60.192C714.277 58.144 714.96 56.1387 714.96 54.176C714.96 51.9573 714.235 50.1653 712.784 48.8C711.419 47.4347 709.499 46.752 707.024 46.752C701.733 46.752 697.723 49.8667 694.992 56.096L675.28 45.088C678.181 38.3467 682.448 33.2267 688.08 29.728C693.712 26.2293 699.941 24.48 706.768 24.48C715.301 24.48 722.597 27.04 728.656 32.16C734.8 37.1947 737.872 44.1067 737.872 52.896C737.872 58.1013 736.635 62.9227 734.16 67.36C731.771 71.712 728.229 76.32 723.536 81.184L711.376 93.856H739.408V116H676.688ZM815.835 81.44V102.304H806.875V116H784.091V102.304H744.795V81.44L771.547 26.4H796.891L769.883 81.44H784.091V65.312H806.875V81.44H815.835Z"/>
</mask>
<path d="M49.168 26.4V25.4H48.168V26.4H49.168ZM71.952 26.4H72.952V25.4H71.952V26.4ZM71.952 116V117H72.952V116H71.952ZM49.168 116H48.168V117H49.168V116ZM49.168 81.568H50.168V80.568H49.168V81.568ZM23.952 81.568V80.568H22.952V81.568H23.952ZM23.952 116V117H24.952V116H23.952ZM1.04 116H0.0400004V117H1.04V116ZM1.04 26.4V25.4H0.0400004V26.4H1.04ZM23.952 26.4H24.952V25.4H23.952V26.4ZM23.952 59.552H22.952V60.552H23.952V59.552ZM49.168 59.552V60.552H50.168V59.552H49.168ZM49.168 27.4H71.952V25.4H49.168V27.4ZM70.952 26.4V116H72.952V26.4H70.952ZM71.952 115H49.168V117H71.952V115ZM50.168 116V81.568H48.168V116H50.168ZM49.168 80.568H23.952V82.568H49.168V80.568ZM22.952 81.568V116H24.952V81.568H22.952ZM23.952 115H1.04V117H23.952V115ZM2.04 116V26.4H0.0400004V116H2.04ZM1.04 27.4H23.952V25.4H1.04V27.4ZM22.952 26.4V59.552H24.952V26.4H22.952ZM23.952 60.552H49.168V58.552H23.952V60.552ZM50.168 59.552V26.4H48.168V59.552H50.168ZM130.453 52V51H129.453V52H130.453ZM151.701 52H152.701V51H151.701V52ZM151.701 116V117H152.701V116H151.701ZM130.453 116H129.453V117H130.453V116ZM130.453 110.112H131.453V107.391L129.691 109.464L130.453 110.112ZM90.773 108.192L90.0228 108.853L90.0322 108.864L90.773 108.192ZM90.773 59.936L90.0278 59.2692L90.0272 59.2698L90.773 59.936ZM130.453 57.888L129.691 58.5356L131.453 60.6085V57.888H130.453ZM126.741 94.112L126.022 93.417L126.022 93.417L126.741 94.112ZM126.741 73.888L126.022 74.583L126.022 74.583L126.741 73.888ZM130.453 53H151.701V51H130.453V53ZM150.701 52V116H152.701V52H150.701ZM151.701 115H130.453V117H151.701V115ZM131.453 116V110.112H129.453V116H131.453ZM129.691 109.464C125.56 114.325 119.8 116.792 112.277 116.792V118.792C120.285 118.792 126.642 116.139 131.215 110.76L129.691 109.464ZM112.277 116.792C104.03 116.792 97.1296 113.714 91.5138 107.52L90.0322 108.864C96.0217 115.47 103.457 118.792 112.277 118.792V116.792ZM91.5231 107.531C85.9857 101.249 83.197 93.4293 83.197 84H81.197C81.197 93.856 84.1256 102.164 90.0229 108.853L91.5231 107.531ZM83.197 84C83.197 74.5705 85.9857 66.796 91.5188 60.6022L90.0272 59.2698C84.1257 65.876 81.197 74.1442 81.197 84H83.197ZM91.5182 60.6028C97.1355 54.3247 104.035 51.208 112.277 51.208V49.208C103.453 49.208 96.0158 52.5766 90.0278 59.2692L91.5182 60.6028ZM112.277 51.208C119.8 51.208 125.56 53.6752 129.691 58.5356L131.215 57.2403C126.642 51.8608 120.285 49.208 112.277 49.208V51.208ZM131.453 57.888V52H129.453V57.888H131.453ZM106.566 94.807C109.254 97.5874 112.769 98.952 117.013 98.952V96.952C113.236 96.952 110.266 95.7566 108.004 93.417L106.566 94.807ZM117.013 98.952C121.257 98.952 124.772 97.5874 127.46 94.807L126.022 93.417C123.76 95.7566 120.79 96.952 117.013 96.952V98.952ZM127.46 94.807C130.146 92.0284 131.453 88.3922 131.453 84H129.453C129.453 87.9705 128.285 91.0756 126.022 93.417L127.46 94.807ZM131.453 84C131.453 79.6078 130.146 75.9716 127.46 73.193L126.022 74.583C128.285 76.9244 129.453 80.0295 129.453 84H131.453ZM127.46 73.193C124.772 70.4126 121.257 69.048 117.013 69.048V71.048C120.79 71.048 123.76 72.2434 126.022 74.583L127.46 73.193ZM117.013 69.048C112.769 69.048 109.254 70.4126 106.566 73.193L108.004 74.583C110.266 72.2434 113.236 71.048 117.013 71.048V69.048ZM106.566 73.193C103.88 75.9716 102.573 79.6078 102.573 84H104.573C104.573 80.0295 105.741 76.9244 108.004 74.583L106.566 73.193ZM102.573 84C102.573 88.3922 103.88 92.0284 106.566 94.807L108.004 93.417C105.741 91.0756 104.573 87.9705 104.573 84H102.573ZM170.55 108.064L169.843 108.771L169.843 108.771L170.55 108.064ZM170.55 59.936L169.843 59.2289L169.843 59.2289L170.55 59.936ZM212.022 54.688L211.518 55.5518L211.524 55.5554L212.022 54.688ZM224.054 66.72L224.554 67.586L225.408 67.0927L224.927 66.2318L224.054 66.72ZM205.878 77.216L205.002 77.6986L205.495 78.5922L206.378 78.082L205.878 77.216ZM185.782 74.656L186.489 75.3631L186.495 75.3569L186.501 75.3506L185.782 74.656ZM185.782 93.472L185.063 94.1666L185.069 94.1729L185.075 94.1791L185.782 93.472ZM205.878 90.656L206.378 89.79L205.458 89.259L204.984 90.2088L205.878 90.656ZM224.054 101.152L224.93 101.634L225.402 100.776L224.554 100.286L224.054 101.152ZM212.022 113.312L211.524 112.445L211.518 112.448L212.022 113.312ZM194.87 116.792C185.389 116.792 177.543 113.642 171.257 107.357L169.843 108.771C176.528 115.456 184.895 118.792 194.87 118.792V116.792ZM171.257 107.357C164.968 101.068 161.822 93.3046 161.822 84H159.822C159.822 93.8101 163.161 102.09 169.843 108.771L171.257 107.357ZM161.822 84C161.822 74.6954 164.968 66.9323 171.257 60.6431L169.843 59.2289C163.161 65.9104 159.822 74.1899 159.822 84H161.822ZM171.257 60.6431C177.543 54.3576 185.389 51.208 194.87 51.208V49.208C184.895 49.208 176.528 52.5438 169.843 59.2289L171.257 60.6431ZM194.87 51.208C201.02 51.208 206.561 52.6602 211.518 55.5518L212.526 53.8242C207.243 50.7425 201.35 49.208 194.87 49.208V51.208ZM211.524 55.5554C216.579 58.4557 220.457 62.3381 223.181 67.2082L224.927 66.2318C222.019 61.0326 217.875 56.8936 212.52 53.8206L211.524 55.5554ZM223.554 65.854L205.378 76.35L206.378 78.082L224.554 67.586L223.554 65.854ZM206.754 76.7334C205.523 74.5001 203.894 72.788 201.857 71.6407C199.823 70.4955 197.439 69.944 194.742 69.944V71.944C197.165 71.944 199.197 72.4378 200.875 73.3833C202.55 74.3267 203.929 75.7506 205.002 77.6986L206.754 76.7334ZM194.742 69.944C190.899 69.944 187.649 71.2826 185.063 73.9614L186.501 75.3506C188.694 73.0801 191.417 71.944 194.742 71.944V69.944ZM185.075 73.9489C182.472 76.5519 181.198 79.9342 181.198 84H183.198C183.198 80.3858 184.313 77.5388 186.489 75.3631L185.075 73.9489ZM181.198 84C181.198 88.0663 182.472 91.4832 185.063 94.1666L186.501 92.7774C184.314 90.5115 183.198 87.6137 183.198 84H181.198ZM185.075 94.1791C187.664 96.7682 190.911 98.056 194.742 98.056V96.056C191.405 96.056 188.679 94.9544 186.489 92.7649L185.075 94.1791ZM194.742 98.056C197.521 98.056 199.953 97.4951 201.992 96.323C204.038 95.1474 205.628 93.3916 206.772 91.1032L204.984 90.2088C203.994 92.1871 202.662 93.6313 200.996 94.589C199.323 95.5502 197.253 96.056 194.742 96.056V98.056ZM205.378 91.522L223.554 102.018L224.554 100.286L206.378 89.79L205.378 91.522ZM223.178 100.67C220.453 105.625 216.575 109.547 211.524 112.445L212.52 114.179C217.88 111.104 222.023 106.919 224.93 101.634L223.178 100.67ZM211.518 112.448C206.561 115.34 201.02 116.792 194.87 116.792V118.792C201.35 118.792 207.243 117.258 212.526 114.176L211.518 112.448ZM294.126 116V117H296.047L294.945 115.427L294.126 116ZM270.318 116L269.486 116.555L269.783 117H270.318V116ZM252.142 88.736L252.974 88.1813L251.142 85.4332V88.736H252.142ZM252.142 116V117H253.142V116H252.142ZM230.894 116H229.894V117H230.894V116ZM230.894 26.4V25.4H229.894V26.4H230.894ZM252.142 26.4H253.142V25.4H252.142V26.4ZM252.142 78.752H251.142V82.2761L252.993 79.2772L252.142 78.752ZM268.654 52V51H268.096L267.803 51.4748L268.654 52ZM293.23 52L294.06 52.5578L295.107 51H293.23V52ZM271.726 84L270.896 83.4422L270.513 84.0115L270.907 84.5735L271.726 84ZM294.126 115H270.318V117H294.126V115ZM271.15 115.445L252.974 88.1813L251.31 89.2907L269.486 116.555L271.15 115.445ZM251.142 88.736V116H253.142V88.736H251.142ZM252.142 115H230.894V117H252.142V115ZM231.894 116V26.4H229.894V116H231.894ZM230.894 27.4H252.142V25.4H230.894V27.4ZM251.142 26.4V78.752H253.142V26.4H251.142ZM252.993 79.2772L269.505 52.5252L267.803 51.4748L251.291 78.2268L252.993 79.2772ZM268.654 53H293.23V51H268.654V53ZM292.4 51.4422L270.896 83.4422L272.556 84.5578L294.06 52.5578L292.4 51.4422ZM270.907 84.5735L293.307 116.573L294.945 115.427L272.545 83.4265L270.907 84.5735ZM361.197 109.344L360.545 108.585L360.541 108.59L361.197 109.344ZM310.125 109.344L309.469 110.098L309.473 110.103L310.125 109.344ZM300.269 26.4V25.4H299.269V26.4H300.269ZM323.181 26.4H324.181V25.4H323.181V26.4ZM348.269 26.4V25.4H347.269V26.4H348.269ZM371.181 26.4H372.181V25.4H371.181V26.4ZM360.541 108.59C354.186 114.119 345.944 116.92 335.725 116.92V118.92C346.327 118.92 355.067 116.004 361.853 110.098L360.541 108.59ZM335.725 116.92C325.507 116.92 317.219 114.119 310.777 108.585L309.473 110.103C316.343 116.004 325.122 118.92 335.725 118.92V116.92ZM310.781 108.59C304.45 103.08 301.269 95.7712 301.269 86.56H299.269C299.269 96.2928 302.659 104.173 309.469 110.098L310.781 108.59ZM301.269 86.56V26.4H299.269V86.56H301.269ZM300.269 27.4H323.181V25.4H300.269V27.4ZM322.181 26.4V84.384H324.181V26.4H322.181ZM322.181 84.384C322.181 88.3223 323.282 91.451 325.649 93.576C327.995 95.6827 331.414 96.648 335.725 96.648V94.648C331.673 94.648 328.82 93.736 326.985 92.088C325.17 90.4583 324.181 87.955 324.181 84.384H322.181ZM335.725 96.648C340.036 96.648 343.455 95.6827 345.801 93.576C348.168 91.451 349.269 88.3223 349.269 84.384H347.269C347.269 87.955 346.28 90.4583 344.465 92.088C342.63 93.736 339.777 94.648 335.725 94.648V96.648ZM349.269 84.384V26.4H347.269V84.384H349.269ZM348.269 27.4H371.181V25.4H348.269V27.4ZM370.181 26.4V86.56H372.181V26.4H370.181ZM370.181 86.56C370.181 95.7667 366.961 103.075 360.545 108.585L361.849 110.103C368.745 104.179 372.181 96.2973 372.181 86.56H370.181ZM445.855 26.4H446.855V25.4H445.855V26.4ZM445.855 48.544V49.544H446.855V48.544H445.855ZM423.711 48.544V47.544H422.711V48.544H423.711ZM423.711 116V117H424.711V116H423.711ZM400.799 116H399.799V117H400.799V116ZM400.799 48.544H401.799V47.544H400.799V48.544ZM378.655 48.544H377.655V49.544H378.655V48.544ZM378.655 26.4V25.4H377.655V26.4H378.655ZM444.855 26.4V48.544H446.855V26.4H444.855ZM445.855 47.544H423.711V49.544H445.855V47.544ZM422.711 48.544V116H424.711V48.544H422.711ZM423.711 115H400.799V117H423.711V115ZM401.799 116V48.544H399.799V116H401.799ZM400.799 47.544H378.655V49.544H400.799V47.544ZM379.655 48.544V26.4H377.655V48.544H379.655ZM378.655 27.4H445.855V25.4H378.655V27.4ZM502.446 116L501.487 116.285L501.7 117H502.446V116ZM498.606 103.072L499.565 102.787L499.352 102.072H498.606V103.072ZM468.782 103.072V102.072H468.036L467.823 102.787L468.782 103.072ZM464.942 116V117H465.688L465.901 116.285L464.942 116ZM440.11 116L439.16 115.687L438.727 117H440.11V116ZM469.678 26.4V25.4H468.955L468.728 26.0866L469.678 26.4ZM497.582 26.4L498.532 26.0866L498.305 25.4H497.582V26.4ZM527.15 116V117H528.533L528.1 115.687L527.15 116ZM474.67 83.36L473.711 83.0778L473.334 84.36H474.67V83.36ZM492.718 83.36V84.36H494.06L493.676 83.0741L492.718 83.36ZM483.63 52.896L484.588 52.6101L483.623 49.3751L482.671 52.6138L483.63 52.896ZM503.405 115.715L499.565 102.787L497.647 103.357L501.487 116.285L503.405 115.715ZM498.606 102.072H468.782V104.072H498.606V102.072ZM467.823 102.787L463.983 115.715L465.901 116.285L469.741 103.357L467.823 102.787ZM464.942 115H440.11V117H464.942V115ZM441.06 116.313L470.628 26.7134L468.728 26.0866L439.16 115.687L441.06 116.313ZM469.678 27.4H497.582V25.4H469.678V27.4ZM496.632 26.7134L526.2 116.313L528.1 115.687L498.532 26.0866L496.632 26.7134ZM527.15 115H502.446V117H527.15V115ZM474.67 84.36H492.718V82.36H474.67V84.36ZM493.676 83.0741L484.588 52.6101L482.672 53.1819L491.76 83.6459L493.676 83.0741ZM482.671 52.6138L473.711 83.0778L475.629 83.6422L484.589 53.1782L482.671 52.6138ZM529.938 116H528.938V117H529.938V116ZM529.938 99.36L529.212 98.6724L528.938 98.9617V99.36H529.938ZM559.634 68L560.36 68.6876L560.37 68.6775L559.634 68ZM566.162 60.192L566.983 60.7631L566.989 60.7549L566.994 60.7467L566.162 60.192ZM566.034 48.8L565.327 49.5071L565.338 49.5178L565.349 49.5282L566.034 48.8ZM548.242 56.096L547.754 56.9691L548.716 57.5059L549.158 56.4975L548.242 56.096ZM528.53 45.088L527.611 44.6927L527.255 45.5213L528.042 45.9611L528.53 45.088ZM541.33 29.728L540.802 28.8786L540.802 28.8786L541.33 29.728ZM581.906 32.16L581.261 32.9238L581.266 32.9287L581.272 32.9335L581.906 32.16ZM587.41 67.36L586.537 66.8729L586.533 66.8787L587.41 67.36ZM576.786 81.184L576.066 80.4896L576.064 80.4916L576.786 81.184ZM564.626 93.856L563.904 93.1636L562.28 94.856H564.626V93.856ZM592.658 93.856H593.658V92.856H592.658V93.856ZM592.658 116V117H593.658V116H592.658ZM530.938 116V99.36H528.938V116H530.938ZM530.664 100.048L560.36 68.6876L558.908 67.3124L529.212 98.6724L530.664 100.048ZM560.37 68.6775C563.366 65.4242 565.578 62.7821 566.983 60.7631L565.341 59.6209C564.015 61.5273 561.875 64.0904 558.898 67.3225L560.37 68.6775ZM566.994 60.7467C568.441 58.5762 569.21 56.3809 569.21 54.176H567.21C567.21 55.8964 566.614 57.7118 565.33 59.6373L566.994 60.7467ZM569.21 54.176C569.21 51.7163 568.395 49.6486 566.719 48.0718L565.349 49.5282C566.575 50.682 567.21 52.1984 567.21 54.176H569.21ZM566.741 48.0929C565.139 46.4911 562.936 45.752 560.274 45.752V47.752C562.562 47.752 564.198 48.3782 565.327 49.5071L566.741 48.0929ZM560.274 45.752C557.417 45.752 554.873 46.5986 552.685 48.2982C550.511 49.9866 548.737 52.477 547.326 55.6945L549.158 56.4975C550.478 53.4857 552.075 51.3041 553.911 49.8778C555.734 48.4627 557.841 47.752 560.274 47.752V45.752ZM548.73 55.2229L529.018 44.2149L528.042 45.9611L547.754 56.9691L548.73 55.2229ZM529.449 45.4833C532.278 38.9088 536.418 33.9568 541.858 30.5774L540.802 28.8786C534.978 32.4965 530.585 37.7846 527.611 44.6927L529.449 45.4833ZM541.858 30.5774C547.326 27.1802 553.372 25.48 560.018 25.48V23.48C553.011 23.48 546.598 25.2785 540.802 28.8786L541.858 30.5774ZM560.018 25.48C568.334 25.48 575.397 27.9683 581.261 32.9238L582.551 31.3962C576.298 26.1117 568.768 23.48 560.018 23.48V25.48ZM581.272 32.9335C587.158 37.7564 590.122 44.3701 590.122 52.896H592.122C592.122 43.8432 588.942 36.6329 582.54 31.3865L581.272 32.9335ZM590.122 52.896C590.122 57.9352 588.926 62.5883 586.537 66.8729L588.283 67.8471C590.843 63.2571 592.122 58.2675 592.122 52.896H590.122ZM586.533 66.8787C584.199 71.1308 580.719 75.6681 576.066 80.4896L577.506 81.8784C582.24 76.9719 585.842 72.2932 588.287 67.8413L586.533 66.8787ZM576.064 80.4916L563.904 93.1636L565.348 94.5484L577.508 81.8764L576.064 80.4916ZM564.626 94.856H592.658V92.856H564.626V94.856ZM591.658 93.856V116H593.658V93.856H591.658ZM592.658 115H529.938V117H592.658V115ZM662.834 105.248L662.042 104.638L662.041 104.639L662.834 105.248ZM608.178 105.248L607.382 105.853L607.389 105.862L608.178 105.248ZM608.178 37.28L607.386 36.6699L607.385 36.6711L608.178 37.28ZM662.834 37.28L662.038 37.8851L662.045 37.8939L662.834 37.28ZM662.041 104.639C655.765 112.814 646.985 116.92 635.57 116.92V118.92C647.537 118.92 656.932 114.578 663.627 105.857L662.041 104.639ZM635.57 116.92C624.155 116.92 615.329 112.814 608.967 104.634L607.389 105.862C614.168 114.578 623.603 118.92 635.57 118.92V116.92ZM608.974 104.643C602.658 96.3322 599.45 85.2169 599.45 71.2H597.45C597.45 85.5137 600.727 97.0971 607.382 105.853L608.974 104.643ZM599.45 71.2C599.45 57.1824 602.658 46.1124 608.971 37.8889L607.385 36.6711C600.727 45.3436 597.45 56.8869 597.45 71.2H599.45ZM608.97 37.8901C615.334 29.6259 624.159 25.48 635.57 25.48V23.48C623.6 23.48 614.164 27.8675 607.386 36.6699L608.97 37.8901ZM635.57 25.48C646.981 25.48 655.761 29.6255 662.038 37.8851L663.63 36.6749C656.937 27.8678 647.54 23.48 635.57 23.48V25.48ZM662.045 37.8939C668.44 46.117 671.69 57.1851 671.69 71.2H673.69C673.69 56.8842 670.369 45.339 663.623 36.6661L662.045 37.8939ZM671.69 71.2C671.69 85.2143 668.441 96.3276 662.042 104.638L663.626 105.858C670.369 97.1017 673.69 85.5164 673.69 71.2H671.69ZM620.362 71.2C620.362 79.4134 621.55 85.7369 624.049 90.0385C626.597 94.423 630.48 96.648 635.57 96.648V94.648C631.188 94.648 627.967 92.7983 625.779 89.0335C623.542 85.1858 622.362 79.2852 622.362 71.2H620.362ZM635.57 96.648C640.66 96.648 644.543 94.423 647.091 90.0385C649.59 85.7369 650.778 79.4134 650.778 71.2H648.778C648.778 79.2852 647.598 85.1858 645.361 89.0335C643.173 92.7983 639.952 94.648 635.57 94.648V96.648ZM650.778 71.2C650.778 62.9866 649.59 56.6631 647.091 52.3615C644.543 47.977 640.66 45.752 635.57 45.752V47.752C639.952 47.752 643.173 49.6017 645.361 53.3665C647.598 57.2142 648.778 63.1148 648.778 71.2H650.778ZM635.57 45.752C630.48 45.752 626.597 47.977 624.049 52.3615C621.55 56.6631 620.362 62.9866 620.362 71.2H622.362C622.362 63.1148 623.542 57.2142 625.779 53.3665C627.967 49.6017 631.188 47.752 635.57 47.752V45.752ZM676.688 116H675.688V117H676.688V116ZM676.688 99.36L675.962 98.6724L675.688 98.9617V99.36H676.688ZM706.384 68L707.11 68.6876L707.12 68.6775L706.384 68ZM712.912 60.192L713.733 60.7631L713.739 60.7549L713.744 60.7467L712.912 60.192ZM712.784 48.8L712.077 49.5071L712.088 49.5178L712.099 49.5282L712.784 48.8ZM694.992 56.096L694.504 56.9691L695.466 57.5059L695.908 56.4975L694.992 56.096ZM675.28 45.088L674.361 44.6927L674.005 45.5213L674.792 45.9611L675.28 45.088ZM688.08 29.728L687.552 28.8786L687.552 28.8786L688.08 29.728ZM728.656 32.16L728.011 32.9238L728.016 32.9287L728.022 32.9335L728.656 32.16ZM734.16 67.36L733.287 66.8729L733.283 66.8787L734.16 67.36ZM723.536 81.184L722.816 80.4896L722.814 80.4916L723.536 81.184ZM711.376 93.856L710.654 93.1636L709.03 94.856H711.376V93.856ZM739.408 93.856H740.408V92.856H739.408V93.856ZM739.408 116V117H740.408V116H739.408ZM677.688 116V99.36H675.688V116H677.688ZM677.414 100.048L707.11 68.6876L705.658 67.3124L675.962 98.6724L677.414 100.048ZM707.12 68.6775C710.116 65.4242 712.328 62.7821 713.733 60.7631L712.091 59.6209C710.765 61.5273 708.625 64.0904 705.648 67.3225L707.12 68.6775ZM713.744 60.7467C715.191 58.5762 715.96 56.3809 715.96 54.176H713.96C713.96 55.8964 713.364 57.7118 712.08 59.6373L713.744 60.7467ZM715.96 54.176C715.96 51.7163 715.145 49.6486 713.469 48.0718L712.099 49.5282C713.325 50.682 713.96 52.1984 713.96 54.176H715.96ZM713.491 48.0929C711.889 46.4911 709.686 45.752 707.024 45.752V47.752C709.312 47.752 710.948 48.3782 712.077 49.5071L713.491 48.0929ZM707.024 45.752C704.167 45.752 701.623 46.5986 699.435 48.2982C697.261 49.9866 695.487 52.477 694.076 55.6945L695.908 56.4975C697.228 53.4857 698.825 51.3041 700.661 49.8778C702.484 48.4627 704.591 47.752 707.024 47.752V45.752ZM695.48 55.2229L675.768 44.2149L674.792 45.9611L694.504 56.9691L695.48 55.2229ZM676.199 45.4833C679.028 38.9088 683.168 33.9568 688.608 30.5774L687.552 28.8786C681.728 32.4965 677.335 37.7846 674.361 44.6927L676.199 45.4833ZM688.608 30.5774C694.076 27.1802 700.122 25.48 706.768 25.48V23.48C699.761 23.48 693.348 25.2785 687.552 28.8786L688.608 30.5774ZM706.768 25.48C715.084 25.48 722.147 27.9683 728.011 32.9238L729.301 31.3962C723.048 26.1117 715.518 23.48 706.768 23.48V25.48ZM728.022 32.9335C733.908 37.7564 736.872 44.3701 736.872 52.896H738.872C738.872 43.8432 735.692 36.6329 729.29 31.3865L728.022 32.9335ZM736.872 52.896C736.872 57.9352 735.676 62.5883 733.287 66.8729L735.033 67.8471C737.593 63.2571 738.872 58.2675 738.872 52.896H736.872ZM733.283 66.8787C730.949 71.1308 727.469 75.6681 722.816 80.4896L724.256 81.8784C728.99 76.9719 732.592 72.2932 735.037 67.8413L733.283 66.8787ZM722.814 80.4916L710.654 93.1636L712.098 94.5484L724.258 81.8764L722.814 80.4916ZM711.376 94.856H739.408V92.856H711.376V94.856ZM738.408 93.856V116H740.408V93.856H738.408ZM739.408 115H676.688V117H739.408V115ZM815.835 81.44H816.835V80.44H815.835V81.44ZM815.835 102.304V103.304H816.835V102.304H815.835ZM806.875 102.304V101.304H805.875V102.304H806.875ZM806.875 116V117H807.875V116H806.875ZM784.091 116H783.091V117H784.091V116ZM784.091 102.304H785.091V101.304H784.091V102.304ZM744.795 102.304H743.795V103.304H744.795V102.304ZM744.795 81.44L743.896 81.0029L743.795 81.2098V81.44H744.795ZM771.547 26.4V25.4H770.921L770.648 25.9628L771.547 26.4ZM796.891 26.4L797.789 26.8405L798.496 25.4H796.891V26.4ZM769.883 81.44L768.985 80.9995L768.278 82.44H769.883V81.44ZM784.091 81.44V82.44H785.091V81.44H784.091ZM784.091 65.312V64.312H783.091V65.312H784.091ZM806.875 65.312H807.875V64.312H806.875V65.312ZM806.875 81.44H805.875V82.44H806.875V81.44ZM814.835 81.44V102.304H816.835V81.44H814.835ZM815.835 101.304H806.875V103.304H815.835V101.304ZM805.875 102.304V116H807.875V102.304H805.875ZM806.875 115H784.091V117H806.875V115ZM785.091 116V102.304H783.091V116H785.091ZM784.091 101.304H744.795V103.304H784.091V101.304ZM745.795 102.304V81.44H743.795V102.304H745.795ZM745.694 81.8771L772.446 26.8371L770.648 25.9628L743.896 81.0029L745.694 81.8771ZM771.547 27.4H796.891V25.4H771.547V27.4ZM795.993 25.9595L768.985 80.9995L770.781 81.8805L797.789 26.8405L795.993 25.9595ZM769.883 82.44H784.091V80.44H769.883V82.44ZM785.091 81.44V65.312H783.091V81.44H785.091ZM784.091 66.312H806.875V64.312H784.091V66.312ZM805.875 65.312V81.44H807.875V65.312H805.875ZM806.875 82.44H815.835V80.44H806.875V82.44Z" fill="#464646" mask="url(#path-1-outside-1_127_5)"/>
</g>
<defs>
<clipPath id="clip0_127_5">
<rect width="817" height="85" fill="white"/>
</clipPath>
</defs>
</svg>
