<svg width="32" height="32" viewBox="0 0 1400 1400" fill="none" xmlns="http://www.w3.org/2000/svg" xmlns:xlink="http://www.w3.org/1999/xlink">
<rect width="1400" height="1400" fill="black"/>
<path d="M20 1135.85V348.148C0 333.301 8.54251 319.778 21.9504 313.401L207.919 224.953C233.45 212.81 262.921 231.427 262.921 259.7V1013.01C262.921 1028.64 272.375 1042.72 286.843 1048.63L508.082 1139.03C533.392 1149.37 561.111 1130.76 561.111 1103.41V881.224C561.111 865.956 570.14 852.132 584.12 845.994L770.089 764.349C795.514 753.187 824.032 771.811 824.032 799.58V1255.81C824.032 1270.25 815.948 1283.47 803.096 1290.06L577.599 1405.56C567.179 1410.89 554.897 1411.19 544.227 1406.38L22.6453 1170.92C8.86054 1164.7 0 1150.98 0 1135.85Z" fill="white"/>
<path d="M1362.7 278.148V1065.85C1362.7 1080.7 1354.16 1094.22 1340.75 1100.6L1154.78 1189.05C1129.25 1201.19 1099.78 1182.57 1099.78 1154.3V400.986C1099.78 385.356 1090.32 371.28 1075.86 365.368L854.617 274.97C829.306 264.628 801.587 283.245 801.587 310.587V532.776C801.587 548.045 792.559 561.869 778.578 568.007L592.61 649.651C567.184 660.814 538.667 642.189 538.667 614.421V158.189C538.667 143.75 546.751 130.526 559.603 123.944L785.1 8.44502C795.519 3.10835 807.801 2.80537 818.471 7.62202L1340.05 243.079C1353.84 249.302 1362.7 263.023 1362.7 278.148Z" fill="white"/>
</svg>
